HIERARCHY
ROOT Hips
{
	OFFSET -0.001795 -0.223333 0.028219
	CHANNELS 6 Xposition Yposition Zposition Zrotation Yrotation Xrotation 
	JOINT LeftUpLeg
	{
		OFFSET 0.069520 -0.091406 -0.006815
		CHANNELS 3 Zrotation Yrotation Xrotation
		JOINT LeftLeg
		{
			OFFSET 0.034277 -0.375199 -0.004496
			CHANNELS 3 Zrotation Yrotation Xrotation
			JOINT LeftFoot
			{
				OFFSET -0.013596 -0.397961 -0.043693
				CHANNELS 3 Zrotation Yrotation Xrotation
				JOINT LeftToe
				{
					OFFSET 0.026358 -0.055791 0.119288
					CHANNELS 3 Zrotation Yrotation Xrotation
					End Site
					{
						OFFSET 0.000000 0.000000 0.000000
					}
				}
			}
		}
	}
	JOINT RightUpLeg
	{
		OFFSET -0.067670 -0.090522 -0.004320
		CHANNELS 3 Zrotation Yrotation Xrotation
		JOINT RightLeg
		{
			OFFSET -0.038290 -0.382569 -0.008850
			CHANNELS 3 Zrotation Yrotation Xrotation
			JOINT RightFoot
			{
				OFFSET 0.015774 -0.398415 -0.042312
				CHANNELS 3 Zrotation Yrotation Xrotation
				JOINT RightToe
				{
					OFFSET -0.025372 -0.048144 0.123348
					CHANNELS 3 Zrotation Yrotation Xrotation
					End Site
					{
						OFFSET 0.000000 0.000000 0.000000
					}
				}
			}
		}
	}
	JOINT Spine
	{
		OFFSET -0.002533 0.108963 -0.026696
		CHANNELS 3 Zrotation Yrotation Xrotation
		JOINT Spine1
		{
			OFFSET 0.005487 0.135180 0.001092
			CHANNELS 3 Zrotation Yrotation Xrotation
			JOINT Spine2
			{
				OFFSET 0.001457 0.052922 0.025425
				CHANNELS 3 Zrotation Yrotation Xrotation
				JOINT Neck
				{
					OFFSET -0.002778 0.213870 -0.042857
					CHANNELS 3 Zrotation Yrotation Xrotation
					JOINT Head
					{
						OFFSET 0.005152 0.064970 0.051349
						CHANNELS 3 Zrotation Yrotation Xrotation
						End Site
						{
							OFFSET 0.000000 0.000000 0.000000
						}
					}
				}
				JOINT LeftShoulder
				{
					OFFSET 0.078845 0.121749 -0.034090
					CHANNELS 3 Zrotation Yrotation Xrotation
					JOINT LeftArm
					{
						OFFSET 0.090977 0.030469 -0.008868
						CHANNELS 3 Zrotation Yrotation Xrotation
						JOINT LeftForeArm
						{
							OFFSET 0.259612 -0.012772 -0.027456
							CHANNELS 3 Zrotation Yrotation Xrotation
							JOINT LeftHand
							{
								OFFSET 0.249234 0.008986 -0.001171
								CHANNELS 3 Zrotation Yrotation Xrotation
								End Site
								{
									OFFSET 0.000000 0.000000 0.000000
								}
							}
						}
					}
				}
				JOINT RightShoulder
				{
					OFFSET -0.081759 0.118833 -0.038615
					CHANNELS 3 Zrotation Yrotation Xrotation
					JOINT RightArm
					{
						OFFSET -0.096012 0.032551 -0.009143
						CHANNELS 3 Zrotation Yrotation Xrotation
						JOINT RightForeArm
						{
							OFFSET -0.253742 -0.013329 -0.021401
							CHANNELS 3 Zrotation Yrotation Xrotation
							JOINT RightHand
							{
								OFFSET -0.255298 0.007772 -0.005559
								CHANNELS 3 Zrotation Yrotation Xrotation
								End Site
								{
									OFFSET 0.000000 0.000000 0.000000
								}
							}
						}
					}
				}
			}
		}
	}
}
MOTION
Frames: 18
Frame Time: 0.050000
0.000000 0.943228 0.000000 -1.009553 0.976017 -0.281185 3.299973 0.086287 2.146764 -3.381917 0.369759 -1.509969 8.727294 18.410970 10.244610 0.000000 0.000000 0.000000 -0.540989 -0.059228 0.729249 2.777326 -0.272741 1.996723 -9.698122 -22.761237 10.641441 0.000000 0.000000 0.000000 -2.146819 -0.067100 3.666127 2.701238 -0.107443 -22.430767 0.154912 -0.841489 29.741057 0.763515 1.500676 -33.395384 0.000000 0.000000 0.000000 -15.346536 -3.178411 0.977890 -34.134349 10.393169 -8.244167 -89.077957 -23.606087 25.471239 0.000000 0.000000 0.000000 9.257614 7.973200 3.114142 37.174599 -10.493039 -8.215793 94.353646 28.382444 31.230214 0.000000 0.000000 0.000000 
-0.000368 0.941890 0.000383 -1.082164 1.435694 0.267779 3.151133 0.082161 2.130846 -2.356660 0.280650 -2.242977 8.359882 17.752741 8.743659 0.000000 0.000000 0.000000 -0.460526 -0.095893 1.082190 2.135638 -0.214865 0.932409 -9.462320 -22.323324 10.633607 0.000000 0.000000 0.000000 -2.651900 -0.029898 2.908298 2.272763 0.014324 -22.436618 0.994858 -2.087604 29.462143 -0.221731 2.006068 -36.807974 0.000000 0.000000 0.000000 -14.397063 -2.495991 0.829676 -34.239861 10.598940 -8.331724 -91.706578 -21.142773 24.358627 0.000000 0.000000 0.000000 6.983281 8.104385 3.002239 36.674821 -10.626388 -8.090882 96.082178 27.787790 30.894476 0.000000 0.000000 0.000000 
-0.000693 0.941864 0.000458 -1.042340 2.895738 0.575972 3.520550 0.044935 1.993748 -2.835356 0.313233 -2.368467 7.382525 16.095315 7.738873 0.000000 0.000000 0.000000 -0.147177 -0.124719 1.257378 1.523127 -0.159924 0.454479 -9.578170 -22.467116 10.988194 0.000000 0.000000 0.000000 -2.806532 -0.012987 2.266101 2.599601 -0.058297 -22.007397 0.216010 -2.470950 29.951995 1.481479 1.419895 -38.906385 0.000000 0.000000 0.000000 -14.834314 -3.637271 1.306364 -34.316765 10.965989 -8.482954 -90.002505 -21.950618 24.309292 0.000000 0.000000 0.000000 8.120662 8.280184 3.176185 36.371258 -11.291494 -8.209412 91.619102 28.686896 29.789612 0.000000 0.000000 0.000000 
-0.001172 0.941538 0.000171 -0.951931 2.719110 0.769082 3.238312 0.057066 2.011862 -2.555554 0.294205 -2.618157 7.762187 16.800516 8.575113 0.000000 0.000000 0.000000 -0.099659 -0.084001 0.848455 1.861331 -0.195303 0.598622 -10.058859 -23.237174 12.016588 0.000000 0.000000 0.000000 -3.533274 0.020097 1.210147 3.504028 -0.290054 -22.194140 -0.385140 -3.022504 30.994774 1.962436 1.221045 -40.637870 0.000000 0.000000 0.000000 -15.527893 -3.088087 1.187966 -33.418179 11.358928 -8.420499 -89.363636 -21.224200 23.409077 0.000000 0.000000 0.000000 7.389730 9.275114 3.506951 35.986851 -10.910442 -8.066120 91.791086 27.490423 28.195673 0.000000 0.000000 0.000000 
-0.001826 0.941540 -0.000416 -0.943416 2.540441 0.724383 3.308354 0.050916 1.919149 -2.760232 0.308152 -2.234688 7.637228 16.567790 8.297642 0.000000 0.000000 0.000000 -0.053487 -0.087701 0.873172 1.574977 -0.166344 0.379364 -9.410294 -22.118874 11.703149 0.000000 0.000000 0.000000 -3.677780 0.023656 1.083244 3.983564 -0.472774 -21.261198 -0.841072 -3.226666 30.414434 2.238550 1.076487 -40.724075 0.000000 0.000000 0.000000 -15.385349 -3.033639 1.207628 -34.182961 11.651128 -8.657209 -88.449378 -20.972252 22.992930 0.000000 0.000000 0.000000 7.438205 9.843102 3.689542 35.686751 -9.321395 -7.521324 88.632994 27.727010 26.762831 0.000000 0.000000 0.000000 
-0.002233 0.941810 -0.001520 -0.917619 2.308221 0.769916 3.264937 0.053812 1.912019 -2.669520 0.302628 -2.300148 7.845576 16.898843 8.262674 0.000000 0.000000 0.000000 -0.224578 -0.080484 0.851336 1.715689 -0.188625 0.080520 -9.322091 -21.937501 12.238045 0.000000 0.000000 0.000000 -3.974920 0.033501 0.461739 3.869587 -0.432456 -21.518258 -0.548242 -3.409796 31.494773 1.737269 1.270419 -41.364738 0.000000 0.000000 0.000000 -15.370492 -3.288026 1.443613 -34.622773 11.612153 -8.854528 -88.202346 -20.575948 22.720555 0.000000 0.000000 0.000000 6.833274 10.359621 3.860067 36.419041 -8.810629 -7.629573 87.825902 27.503953 26.160363 0.000000 0.000000 0.000000 
-0.002310 0.941732 -0.003196 -1.033281 2.326034 0.631422 3.529834 0.045760 1.927180 -2.851569 0.317534 -2.279174 7.833118 16.890047 8.380736 0.000000 0.000000 0.000000 -0.074672 -0.064216 0.649475 1.840772 -0.191672 0.581990 -9.444345 -22.147619 12.293632 0.000000 0.000000 0.000000 -3.862880 0.030596 0.438447 4.106775 -0.524316 -21.047538 -0.769505 -3.421916 31.403553 2.198630 1.060498 -41.096297 0.000000 0.000000 0.000000 -15.038362 -3.363437 1.479688 -34.833460 11.497038 -8.876506 -87.811273 -20.152569 22.184614 0.000000 0.000000 0.000000 7.258553 10.787296 4.049244 35.926260 -8.396221 -7.397568 86.362907 27.399169 25.363739 0.000000 0.000000 0.000000 
-0.002197 0.941738 -0.005126 -1.154881 1.892173 0.652204 3.511483 0.033936 1.648315 -2.608426 0.295157 -1.864551 7.973596 17.077788 8.005113 0.000000 0.000000 0.000000 -0.070312 -0.027279 0.286550 2.122295 -0.213512 1.031834 -9.484537 -22.266497 11.878189 0.000000 0.000000 0.000000 -3.774278 0.033049 0.143341 4.000830 -0.527340 -20.658659 -0.341145 -3.119468 31.848233 2.283445 1.047125 -41.455512 0.000000 0.000000 0.000000 -14.735292 -4.053083 1.835607 -35.179700 11.364177 -8.965606 -88.411369 -20.741052 23.099221 0.000000 0.000000 0.000000 6.881024 10.881709 4.081887 35.895816 -7.838951 -7.287377 86.160826 27.095677 25.030260 0.000000 0.000000 0.000000 
-0.002041 0.941479 -0.007006 -1.196249 1.838551 0.607859 3.587071 0.043498 1.844563 -2.593689 0.297650 -2.179360 7.823246 16.824389 7.948312 0.000000 0.000000 0.000000 0.065885 -0.005647 0.044067 2.149837 -0.209671 1.386079 -9.677609 -22.615473 11.785070 0.000000 0.000000 0.000000 -3.834607 0.034233 -0.002411 4.126037 -0.583167 -20.326466 -0.230470 -3.098664 31.846441 2.450166 0.976660 -41.516920 0.000000 0.000000 0.000000 -14.502504 -4.113816 1.866808 -34.679669 11.662059 -8.901824 -89.154547 -20.805413 23.397521 0.000000 0.000000 0.000000 6.956228 11.215844 4.218951 34.940796 -7.868966 -7.080013 86.418498 26.437586 24.341590 0.000000 0.000000 0.000000 
-0.002065 0.941214 -0.008715 -1.284976 1.806513 0.561054 3.603230 0.049027 1.941111 -2.666388 0.305188 -2.289942 7.833892 16.815285 7.668454 0.000000 0.000000 0.000000 0.235530 0.022101 -0.258182 2.182258 -0.210389 1.550842 -9.722571 -22.709609 11.588876 0.000000 0.000000 0.000000 -3.853862 0.034140 -0.038106 4.072673 -0.575277 -20.227252 -0.007098 -3.025941 32.183864 2.248531 1.070963 -41.647651 0.000000 0.000000 0.000000 -14.342680 -4.207760 1.910143 -34.606110 12.106696 -9.007912 -89.569502 -21.042011 23.776736 0.000000 0.000000 0.000000 7.305917 11.319327 4.290996 34.394824 -8.211926 -7.067039 86.901187 26.200635 24.272779 0.000000 0.000000 0.000000 
-0.002286 0.940795 -0.010309 -1.327653 1.724004 0.501903 3.690434 0.041389 1.838855 -2.566715 0.296388 -2.221676 7.753302 16.664847 7.510040 0.000000 0.000000 0.000000 0.262795 0.018256 -0.226508 2.280070 -0.223475 1.476168 -9.714092 -22.709963 11.425454 0.000000 0.000000 0.000000 -3.829288 0.032654 0.054445 3.999394 -0.556913 -20.216172 0.131208 -3.081921 32.279393 2.169334 1.086541 -41.662874 0.000000 0.000000 0.000000 -14.177626 -4.244554 1.946419 -34.338308 12.500360 -9.029549 -90.038079 -21.561110 24.506798 0.000000 0.000000 0.000000 7.597205 11.462487 4.352505 34.179042 -8.401605 -7.063733 87.098115 25.948257 24.008438 0.000000 0.000000 0.000000 
-0.002627 0.940562 -0.011694 -1.430471 1.537739 0.343287 3.832561 0.043624 1.910375 -2.599530 0.300993 -2.281392 7.730359 16.596317 7.218867 0.000000 0.000000 0.000000 0.380118 0.003484 -0.107949 2.347551 -0.230353 1.498551 -9.659152 -22.616534 11.443410 0.000000 0.000000 0.000000 -3.960764 0.031299 0.212118 4.187991 -0.618928 -20.149868 0.339849 -3.082960 32.367395 2.087137 1.116445 -41.855021 0.000000 0.000000 0.000000 -13.985172 -3.972683 1.834015 -34.561478 12.657871 -9.139321 -90.233248 -22.176505 25.346513 0.000000 0.000000 0.000000 7.738453 11.300349 4.278886 34.096118 -8.704456 -7.121948 87.165610 25.969509 23.989637 0.000000 0.000000 0.000000 
-0.002920 0.940368 -0.012783 -1.630127 1.523025 0.305332 4.025733 0.043629 2.028978 -2.450197 0.289763 -2.405089 7.688562 16.542313 7.395438 0.000000 0.000000 0.000000 0.601110 -0.022279 0.091144 2.271061 -0.225532 1.249407 -9.521093 -22.377341 11.376419 0.000000 0.000000 0.000000 -3.952602 0.030271 0.302715 4.362878 -0.674967 -20.051691 0.509142 -3.163508 32.419513 1.921577 1.195390 -42.132130 0.000000 0.000000 0.000000 -13.859283 -3.760551 1.741151 -34.806788 12.541325 -9.183635 -90.931625 -22.634082 26.236880 0.000000 0.000000 0.000000 7.779585 11.020074 4.155983 34.650438 -9.202562 -7.373620 86.864411 26.315394 24.240805 0.000000 0.000000 0.000000 
-0.003070 0.940147 -0.013583 -1.806707 1.270739 0.201616 4.110644 0.052104 2.177410 -2.277316 0.274967 -2.291110 7.748991 16.601992 6.978038 0.000000 0.000000 0.000000 0.631177 -0.035589 0.207650 2.456193 -0.247919 1.167176 -9.327210 -22.055976 11.130475 0.000000 0.000000 0.000000 -3.968166 0.029058 0.414636 4.588575 -0.746607 -20.024634 0.691009 -3.155832 32.542086 1.565745 1.345933 -42.498279 0.000000 0.000000 0.000000 -13.640844 -3.598915 1.688940 -35.363175 12.542703 -9.351976 -91.253211 -23.214605 27.186065 0.000000 0.000000 0.000000 7.674172 10.827640 4.055862 34.841643 -9.616185 -7.528370 87.002905 26.856256 24.803930 0.000000 0.000000 0.000000 
-0.003103 0.939903 -0.014191 -1.839377 1.095601 0.145616 4.042103 0.064313 2.314801 -2.070018 0.257717 -2.278768 7.587260 16.321118 6.917407 0.000000 0.000000 0.000000 0.654293 -0.068484 0.507779 2.317662 -0.237038 0.810983 -9.239845 -21.905363 11.203503 0.000000 0.000000 0.000000 -3.991124 0.027094 0.742832 4.604400 -0.738909 -20.275363 0.856740 -3.090928 32.704856 1.316077 1.447465 -42.618122 0.000000 0.000000 0.000000 -13.735783 -3.379072 1.597362 -35.751216 12.212366 -9.399364 -91.427450 -23.507022 27.706410 0.000000 0.000000 0.000000 7.675972 10.380201 3.869167 35.118039 -10.164489 -7.748079 87.105633 27.419667 25.441896 0.000000 0.000000 0.000000 
-0.003066 0.939608 -0.014772 -1.786453 0.727438 0.191689 3.803982 0.082673 2.426376 -1.811315 0.238982 -2.416049 7.706274 16.501377 6.746289 0.000000 0.000000 0.000000 0.500115 -0.063410 0.495239 2.288800 -0.233424 0.709549 -9.094481 -21.664690 11.032136 0.000000 0.000000 0.000000 -4.072374 0.029755 0.713287 4.788969 -0.794522 -20.321715 0.788390 -2.995375 32.815705 1.012472 1.560034 -42.782474 0.000000 0.000000 0.000000 -13.830461 -3.177332 1.531021 -35.950785 11.995827 -9.412469 -90.956905 -23.585893 27.679400 0.000000 0.000000 0.000000 7.796316 10.210297 3.784922 34.961741 -10.549212 -7.806038 87.564882 28.179283 26.325182 0.000000 0.000000 0.000000 
-0.003046 0.939050 -0.015436 -1.739989 0.450244 0.247681 3.590582 0.090955 2.394805 -1.737155 0.232889 -2.381583 7.960723 16.922734 6.635067 0.000000 0.000000 0.000000 0.469420 -0.047728 0.352099 2.117656 -0.211759 0.739896 -9.148583 -21.765577 11.182150 0.000000 0.000000 0.000000 -4.106041 0.031643 0.724272 4.762227 -0.797224 -20.237236 0.818439 -3.044326 32.770782 0.774589 1.648150 -43.121512 0.000000 0.000000 0.000000 -13.772276 -3.070969 1.522267 -36.177778 11.733068 -9.414951 -90.215210 -23.671569 27.587353 0.000000 0.000000 0.000000 7.708493 9.861366 3.608865 34.812503 -10.823571 -7.828361 87.958475 28.761375 26.970983 0.000000 0.000000 0.000000 
-0.003015 0.938917 -0.016202 -1.707815 0.010766 0.090615 3.262032 0.127257 2.707017 -1.396844 0.207168 -2.503163 8.241632 17.406677 6.734355 0.000000 0.000000 0.000000 0.546189 -0.072269 0.564350 1.875206 -0.185190 0.617442 -9.197571 -21.866587 11.300952 0.000000 0.000000 0.000000 -4.173628 0.030962 0.871608 4.978704 -0.859907 -20.346888 0.804440 -2.935899 32.908540 0.621940 1.712220 -43.565377 0.000000 0.000000 0.000000 -13.763700 -2.867900 1.463133 -36.139172 11.361874 -9.331885 -89.853600 -23.376269 27.218527 0.000000 0.000000 0.000000 7.419915 9.565544 3.459300 34.558422 -10.765694 -7.759770 88.190018 29.057123 27.261747 0.000000 0.000000 0.000000 
